<?xml version="1.0" encoding="utf-8"?>
<svg xmlns="http://www.w3.org/2000/svg"
	xmlns:xlink="http://www.w3.org/1999/xlink"
	width="98px" height="98px" viewBox="0 0 98 98">
<path fillRule="evenodd" d="M 49 98C 22.07 98 0.23 76.16 0.23 49.23 0.23 22.3 22.07 0.46 49 0.46 75.93 0.46 97.77 22.3 97.77 49.23 97.77 76.16 75.93 98 49 98ZM 49 1.76C 22.83 1.76 1.53 23.06 1.53 49.23 1.53 75.4 22.83 96.7 49 96.7 75.17 96.7 96.47 75.4 96.47 49.23 96.47 23.06 75.17 1.76 49 1.76ZM 24.96 24.89C 24.96 24.89 31.24 24.89 31.24 24.89 31.24 24.89 31.24 21 31.24 21 31.24 21 33 21 33 21 33 21 33 24.89 33 24.89 33 24.89 40.05 24.89 40.05 24.89 40.05 24.89 40.05 21 40.05 21 40.05 21 41.81 21 41.81 21 41.81 21 41.81 24.89 41.81 24.89 41.81 24.89 49.16 24.89 49.16 24.89 49.16 24.89 49.16 21 49.16 21 49.16 21 50.92 21 50.92 21 50.92 21 50.92 24.89 50.92 24.89 50.92 24.89 57.99 24.89 57.99 24.89 57.99 24.89 57.99 21 57.99 21 57.99 21 59.75 21 59.75 21 59.75 21 59.75 24.89 59.75 24.89 59.75 24.89 66.1 24.89 66.1 24.89 66.1 24.89 66.1 21 66.1 21 66.1 21 67.86 21 67.86 21 67.86 21 67.86 24.89 67.86 24.89 67.86 24.89 73.04 24.89 73.04 24.89 73.04 24.89 73.04 73.63 73.04 73.63 73.04 73.63 24.96 73.63 24.96 73.63 24.96 73.63 24.96 24.89 24.96 24.89ZM 26.56 72.03C 26.56 72.03 71.44 72.03 71.44 72.03 71.44 72.03 71.44 38.33 71.44 38.33 71.44 38.33 26.56 38.33 26.56 38.33 26.56 38.33 26.56 72.03 26.56 72.03ZM 26.56 36.74C 26.56 36.74 71.44 36.74 71.44 36.74 71.44 36.74 71.44 26.49 71.44 26.49 71.44 26.49 67.86 26.49 67.86 26.49 67.86 26.49 67.86 30.55 67.86 30.55 67.86 30.55 66.1 30.55 66.1 30.55 66.1 30.55 66.1 26.49 66.1 26.49 66.1 26.49 59.75 26.49 59.75 26.49 59.75 26.49 59.75 30.55 59.75 30.55 59.75 30.55 57.99 30.55 57.99 30.55 57.99 30.55 57.99 26.49 57.99 26.49 57.99 26.49 50.92 26.49 50.92 26.49 50.92 26.49 50.92 30.55 50.92 30.55 50.92 30.55 49.15 30.55 49.15 30.55 49.15 30.55 49.15 26.49 49.15 26.49 49.15 26.49 41.81 26.49 41.81 26.49 41.81 26.49 41.81 30.55 41.81 30.55 41.81 30.55 40.05 30.55 40.05 30.55 40.05 30.55 40.05 26.49 40.05 26.49 40.05 26.49 33 26.49 33 26.49 33 26.49 33 30.55 33 30.55 33 30.55 31.24 30.55 31.24 30.55 31.24 30.55 31.24 26.49 31.24 26.49 31.24 26.49 26.56 26.49 26.56 26.49 26.56 26.49 26.56 36.74 26.56 36.74ZM 49.42 63.74C 49.42 63.74 46.83 63.74 46.83 63.74 46.83 63.74 46.83 62.23 46.83 62.23 46.83 62.23 49.42 62.23 49.42 62.23 49.42 62.23 49.42 48.07 49.42 48.07 49.42 48.07 49.38 48.07 49.38 48.07 49.38 48.07 47.38 49.15 47.38 49.15 47.38 49.15 47.08 47.97 47.08 47.97 47.08 47.97 49.59 46.62 49.59 46.62 49.59 46.62 50.92 46.62 50.92 46.62 50.92 46.62 50.92 62.23 50.92 62.23 50.92 62.23 53.51 62.23 53.51 62.23 53.51 62.23 53.51 63.74 53.51 63.74 53.51 63.74 50.92 63.74 50.92 63.74 50.92 63.74 49.42 63.74 49.42 63.74Z" fill="rgb(0,0,0)"/></svg>