<?xml version="1.0" encoding="utf-8"?>
<svg xmlns="http://www.w3.org/2000/svg"
	xmlns:xlink="http://www.w3.org/1999/xlink"
	width="98px" height="98px" viewBox="0 0 98 98">
<path fillRule="evenodd" d="M 49 98C 22.07 98 0.23 76.16 0.23 49.23 0.23 22.3 22.07 0.46 49 0.46 75.93 0.46 97.77 22.3 97.77 49.23 97.77 76.16 75.93 98 49 98ZM 49 1.76C 22.83 1.76 1.53 23.06 1.53 49.23 1.53 75.4 22.83 96.7 49 96.7 75.17 96.7 96.47 75.4 96.47 49.23 96.47 23.06 75.17 1.76 49 1.76ZM 63.47 39.4C 62.15 39.4 61.08 38.33 61.08 37 61.08 35.68 62.15 34.6 63.47 34.6 64.8 34.6 65.87 35.68 65.87 37 65.87 38.33 64.8 39.4 63.47 39.4ZM 63.47 36.14C 63 36.14 62.61 36.53 62.61 37 62.61 37.48 63 37.87 63.47 37.87 63.95 37.87 64.34 37.48 64.34 37 64.34 36.53 63.95 36.14 63.47 36.14ZM 70.5 53.92C 70.36 54.05 70.17 54.12 69.99 54.12 69.79 54.12 69.59 54.04 69.44 53.89 69.44 53.89 68.04 52.47 68.04 52.47 68.04 52.47 60.82 60.13 60.82 60.13 60.82 60.13 64.82 64.13 64.82 64.13 65.12 64.43 65.12 64.92 64.82 65.22 64.82 65.22 62.12 67.91 62.12 67.91 61.97 68.06 61.78 68.13 61.58 68.13 61.39 68.13 61.19 68.06 61.04 67.91 61.04 67.91 60.72 67.59 60.72 67.59 60.72 67.59 58.57 69.74 58.57 69.74 58.42 69.89 58.23 69.97 58.03 69.97 57.84 69.97 57.64 69.89 57.49 69.74 57.49 69.74 57.17 69.42 57.17 69.42 57.17 69.42 55.02 71.57 55.02 71.57 54.87 71.72 54.68 71.8 54.48 71.8 54.28 71.8 54.09 71.72 53.94 71.57 53.94 71.57 53.62 71.25 53.62 71.25 53.62 71.25 51.47 73.4 51.47 73.4 51.32 73.55 51.13 73.63 50.93 73.63 50.73 73.63 50.54 73.55 50.39 73.41 50.39 73.41 48.97 72.01 48.97 72.01 48.97 72.01 47.58 73.4 47.58 73.4 47.43 73.55 47.23 73.63 47.04 73.63 46.84 73.63 46.65 73.55 46.5 73.4 46.5 73.4 43.8 70.71 43.8 70.71 43.8 70.71 41.11 68.02 41.11 68.02 41.11 68.02 38.42 65.36 38.42 65.36 38.42 65.36 38.42 65.36 38.42 65.36 38.42 65.36 38.42 65.36 38.42 65.36 38.42 65.36 35.73 62.67 35.73 62.67 35.43 62.37 35.43 61.89 35.72 61.58 35.72 61.58 37.04 60.25 37.04 60.25 37.04 60.25 29.86 53.16 29.86 53.16 29.86 53.16 28.55 54.49 28.55 54.49 28.41 54.64 28.21 54.71 28.01 54.71 27.83 54.71 27.64 54.65 27.5 54.52 27.5 54.52 20.29 48.05 20.29 48.05 19.97 47.77 19.95 47.28 20.23 46.96 20.51 46.65 21 46.62 21.32 46.9 21.32 46.9 23.72 49.06 23.72 49.06 23.72 49.06 37.39 35.65 37.39 35.65 37.39 35.65 28.06 26.82 28.06 26.82 27.75 26.53 27.74 26.04 28.03 25.73 28.32 25.42 28.81 25.41 29.11 25.7 29.11 25.7 42.95 38.79 42.95 38.79 43.1 38.93 43.19 39.13 43.19 39.34 43.19 39.54 43.11 39.74 42.97 39.89 42.97 39.89 41.64 41.23 41.64 41.23 41.64 41.23 45.59 45.13 45.59 45.13 45.59 45.13 47.71 43.03 47.71 43.03 47.87 42.86 48.1 42.78 48.33 42.81 48.33 42.81 53.55 43.37 53.55 43.37 53.55 43.37 56.26 40.53 56.26 40.53 56.26 40.53 55.03 39.29 55.03 39.29 54.89 39.14 54.81 38.94 54.81 38.74 54.81 38.53 54.9 38.34 55.05 38.19 55.05 38.19 68.89 25.1 68.89 25.1 69.19 24.81 69.68 24.82 69.97 25.13 70.26 25.44 70.25 25.93 69.94 26.22 69.94 26.22 56.67 38.77 56.67 38.77 56.67 38.77 70.02 52.29 70.02 52.29 70.02 52.29 74.03 48.69 74.03 48.69 74.03 48.69 65.93 40.65 65.93 40.65 65.63 40.35 65.63 39.86 65.93 39.56 66.22 39.26 66.71 39.26 67.01 39.56 67.01 39.56 75.18 47.66 75.18 47.66 75.18 47.66 76.68 46.3 76.68 46.3 77 46.02 77.49 46.05 77.77 46.36 78.05 46.68 78.03 47.16 77.71 47.45 77.71 47.45 70.5 53.92 70.5 53.92ZM 47.04 71.77C 47.04 71.77 47.88 70.93 47.88 70.93 47.88 70.93 46.26 69.34 46.26 69.34 46.26 69.34 45.43 70.17 45.43 70.17 45.43 70.17 47.04 71.77 47.04 71.77ZM 44.34 69.08C 44.34 69.08 45.17 68.26 45.17 68.26 45.17 68.26 43.55 66.66 43.55 66.66 43.55 66.66 42.74 67.48 42.74 67.48 42.74 67.48 44.34 69.08 44.34 69.08ZM 41.65 66.39C 41.65 66.39 42.46 65.58 42.46 65.58 42.46 65.58 40.85 64 40.85 64 40.85 64 40.05 64.81 40.05 64.81 40.05 64.81 41.65 66.39 41.65 66.39ZM 38.95 63.72C 38.95 63.72 39.75 62.91 39.75 62.91 39.75 62.91 38.14 61.32 38.14 61.32 38.14 61.32 37.35 62.12 37.35 62.12 37.35 62.12 38.95 63.72 38.95 63.72ZM 31.71 52.83C 32 52.53 32.29 52.22 32.6 51.91 32.85 51.65 33.1 51.39 33.35 51.14 33.03 50.98 32.74 50.78 32.47 50.56 32.47 50.56 30.95 52.08 30.95 52.08 30.95 52.08 31.71 52.83 31.71 52.83ZM 38.51 36.7C 38.51 36.7 24.87 50.09 24.87 50.09 24.87 50.09 27.98 52.89 27.98 52.89 27.98 52.89 41.33 39.37 41.33 39.37 41.33 39.37 38.51 36.7 38.51 36.7ZM 33.56 49.47C 34.14 49.91 34.85 50.15 35.58 50.15 37.43 50.15 38.94 48.64 38.94 46.79 38.94 46.05 38.69 45.34 38.26 44.77 38.26 44.77 33.56 49.47 33.56 49.47ZM 39.35 43.68C 39.57 43.94 39.76 44.23 39.91 44.53 39.91 44.53 41.32 43.08 41.32 43.08 41.32 43.08 40.63 42.4 40.63 42.4 40.63 42.4 39.35 43.68 39.35 43.68ZM 42.42 44.16C 42.42 44.16 40.43 46.19 40.43 46.19 40.46 46.39 40.48 46.59 40.48 46.79 40.48 49.49 38.28 51.68 35.58 51.68 35.38 51.68 35.19 51.67 35 51.65 34.6 52.05 34.16 52.51 33.7 52.98 33.39 53.29 33.09 53.61 32.8 53.9 32.8 53.9 50.92 71.78 50.92 71.78 50.92 71.78 52.54 70.17 52.54 70.17 52.54 70.17 50.8 68.43 50.8 68.43 50.8 68.43 49.03 66.67 49.03 66.67 48.73 66.37 48.73 65.88 49.03 65.58 49.33 65.28 49.82 65.28 50.12 65.58 50.12 65.58 51.06 66.52 51.06 66.52 51.06 66.52 54.48 69.94 54.48 69.94 54.48 69.94 56.08 68.33 56.08 68.33 56.08 68.33 53.53 65.78 53.53 65.78 53.53 65.78 52.59 64.83 52.59 64.83 52.28 64.53 52.28 64.05 52.59 63.75 52.89 63.45 53.37 63.45 53.67 63.75 53.67 63.75 58.03 68.11 58.03 68.11 58.03 68.11 59.64 66.5 59.64 66.5 59.64 66.5 56.14 63.01 56.14 63.01 55.84 62.7 55.84 62.22 56.14 61.92 56.44 61.62 56.92 61.62 57.22 61.92 57.22 61.92 58.17 62.86 58.17 62.86 58.17 62.86 58.17 62.86 58.17 62.86 58.17 62.86 61.27 65.96 61.27 65.96 61.27 65.96 61.58 66.28 61.58 66.28 61.58 66.28 63.19 64.67 63.19 64.67 63.19 64.67 48.99 50.48 48.99 50.48 41.69 57.87 37.49 54.69 37.31 54.55 37.14 54.41 37.03 54.21 37.02 53.99 37.01 53.77 37.09 53.55 37.25 53.4 37.25 53.4 44.49 46.21 44.49 46.21 44.49 46.21 42.42 44.16 42.42 44.16ZM 57.18 41.79C 57.18 41.79 52.77 46.41 52.77 46.41 52.48 46.71 51.99 46.72 51.68 46.43 51.38 46.14 51.37 45.65 51.66 45.34 51.66 45.34 52.21 44.77 52.21 44.77 52.21 44.77 48.53 44.37 48.53 44.37 48.53 44.37 39.14 53.69 39.14 53.69 40.56 54.02 43.71 53.87 48.42 48.85 48.56 48.7 48.76 48.62 48.97 48.61 49.2 48.61 49.38 48.69 49.52 48.84 49.52 48.84 59.73 59.05 59.73 59.05 59.73 59.05 66.87 51.48 66.87 51.48 66.87 51.48 57.18 41.79 57.18 41.79Z" fill="rgb(0,0,0)"/></svg>