<?xml version="1.0" encoding="utf-8"?>
<svg xmlns="http://www.w3.org/2000/svg"
	xmlns:xlink="http://www.w3.org/1999/xlink"
	width="98px" height="98px" viewBox="0 0 98 98">
<path fillRule="evenodd" d="M 49 98C 22.07 98 0.23 76.16 0.23 49.23 0.23 22.3 22.07 0.46 49 0.46 75.93 0.46 97.77 22.3 97.77 49.23 97.77 76.16 75.93 98 49 98ZM 49 1.76C 22.83 1.76 1.53 23.06 1.53 49.23 1.53 75.4 22.83 96.7 49 96.7 75.17 96.7 96.47 75.4 96.47 49.23 96.47 23.06 75.17 1.76 49 1.76ZM 62.93 73.79C 62.93 73.79 31.18 62.78 31.18 62.78 31.18 62.78 31.87 60.81 31.87 60.81 32.09 60.83 32.3 60.87 32.51 60.89 32.51 60.89 27.2 59.49 27.2 59.49 27.2 59.49 27.52 58.3 27.52 58.3 27.52 58.3 23.97 58.3 23.97 58.3 23.97 58.3 23.97 24.67 23.97 24.67 23.97 24.67 57.61 24.67 57.61 24.67 57.61 24.67 57.61 32.78 57.61 32.78 57.61 32.78 68.36 35.63 68.36 35.63 68.36 35.63 67.27 39.74 67.27 39.74 67.27 39.74 74.03 42.1 74.03 42.1 74.03 42.1 62.93 73.79 62.93 73.79ZM 56.28 25.99C 56.28 25.99 25.35 25.99 25.35 25.99 25.35 25.99 25.35 56.93 25.35 56.93 25.35 56.93 56.28 56.93 56.28 56.93 56.28 56.93 56.28 25.99 56.28 25.99ZM 56.78 58.3C 56.78 58.3 49.58 58.3 49.58 58.3 49.58 58.3 57.03 60.29 57.03 60.29 56.96 59.62 56.88 58.96 56.78 58.3ZM 57.61 34.16C 57.61 34.16 57.61 35.53 57.61 35.53 57.61 35.53 65.3 37.59 65.3 37.59 65.3 37.59 58.77 62.16 58.77 62.16 58.77 62.16 44.24 58.3 44.24 58.3 44.24 58.3 28.91 58.3 28.91 58.3 28.91 58.3 28.84 58.54 28.84 58.54 28.84 58.54 58.75 66.5 58.75 66.5 58.75 66.5 66.71 36.58 66.71 36.58 66.71 36.58 57.61 34.16 57.61 34.16ZM 57.61 36.91C 57.61 36.91 57.61 56.12 57.61 56.12 57.86 57.1 57.98 58.16 58.11 59.23 58.11 59.23 63.63 38.51 63.63 38.51 63.63 38.51 57.61 36.91 57.61 36.91ZM 60.35 65.63C 60.35 65.63 60.87 65.81 60.87 65.81 60.85 65.21 60.81 64.61 60.77 64 60.77 64 60.35 65.63 60.35 65.63ZM 61.63 60.82C 61.86 62.05 61.97 63.45 62.03 64.85 62.03 64.85 69.1 44.61 69.1 44.61 69.1 44.61 66.23 43.62 66.23 43.62 66.23 43.62 61.63 60.82 61.63 60.82ZM 66.92 41.04C 66.92 41.04 66.58 42.32 66.58 42.32 66.58 42.32 70.83 43.81 70.83 43.81 70.83 43.81 62.46 67.82 62.46 67.82 62.46 67.82 59.98 66.96 59.98 66.96 59.98 66.96 59.69 68.07 59.69 68.07 59.69 68.07 33.2 61.06 33.2 61.06 33.2 61.06 32.89 61.96 32.89 61.96 32.89 61.96 62.12 72.16 62.12 72.16 62.12 72.16 72.32 42.92 72.32 42.92 72.32 42.92 66.92 41.04 66.92 41.04ZM 55.17 52.75C 55.17 52.75 26.36 52.75 26.36 52.75 26.36 52.75 26.36 27.31 26.36 27.31 26.36 27.31 55.17 27.31 55.17 27.31 55.17 27.31 55.17 52.75 55.17 52.75ZM 53.02 51.38C 51.78 48.17 50.23 44.76 48.56 44.76 48.45 44.76 48.34 44.78 48.22 44.8 46.1 45.35 44.62 49.85 44.17 51.38 44.17 51.38 53.02 51.38 53.02 51.38ZM 42.26 51.38C 41.59 48.84 39.88 43.22 36.61 39.95 36.23 39.57 35.86 39.38 35.49 39.38 33.07 39.38 30.27 47.06 29.04 51.38 29.04 51.38 42.26 51.38 42.26 51.38ZM 53.79 28.64C 53.79 28.64 27.74 28.64 27.74 28.64 27.74 28.64 27.74 51.38 27.74 51.38 27.74 51.38 27.78 51.38 27.78 51.38 28.85 47.56 31.85 38.17 35.49 38.17 36.19 38.17 36.86 38.48 37.47 39.1 40.31 41.94 42.04 46.17 42.98 49.22 42.98 49.22 43.27 50.12 43.27 50.12 43.27 50.12 43.59 49.24 43.59 49.24 44.41 46.98 45.84 44.17 47.93 43.64 48.14 43.58 48.36 43.55 48.56 43.55 50.93 43.55 52.47 46.77 53.79 50.08 53.79 50.08 53.79 28.64 53.79 28.64ZM 46.34 38.5C 44.49 38.5 42.99 36.99 42.99 35.14 42.99 33.29 44.49 31.79 46.34 31.79 48.19 31.79 49.69 33.29 49.69 35.14 49.69 36.99 48.19 38.5 46.34 38.5ZM 46.34 32.69C 44.99 32.69 43.89 33.79 43.89 35.14 43.89 36.49 44.99 37.59 46.34 37.59 47.69 37.59 48.79 36.49 48.79 35.14 48.79 33.79 47.69 32.69 46.34 32.69Z" fill="rgb(0,0,0)"/></svg>