<?xml version="1.0" encoding="utf-8"?>
<svg xmlns="http://www.w3.org/2000/svg"
	xmlns:xlink="http://www.w3.org/1999/xlink"
	width="98px" height="98px" viewBox="0 0 98 98">
<path fillRule="evenodd" d="M 49 98C 22.07 98 0.23 76.16 0.23 49.23 0.23 22.3 22.07 0.46 49 0.46 75.93 0.46 97.77 22.3 97.77 49.23 97.77 76.16 75.93 98 49 98ZM 49 1.76C 22.83 1.76 1.53 23.06 1.53 49.23 1.53 75.4 22.83 96.7 49 96.7 75.17 96.7 96.47 75.4 96.47 49.23 96.47 23.06 75.17 1.76 49 1.76ZM 24.93 24.83C 24.93 24.83 31.22 24.83 31.22 24.83 31.22 24.83 32.98 24.83 32.98 24.83 32.98 24.83 40.04 24.83 40.04 24.83 40.04 24.83 41.8 24.83 41.8 24.83 41.8 24.83 49.16 24.83 49.16 24.83 49.16 24.83 50.92 24.83 50.92 24.83 50.92 24.83 58 24.83 58 24.83 58 24.83 59.77 24.83 59.77 24.83 59.77 24.83 66.12 24.83 66.12 24.83 66.12 24.83 67.88 24.83 67.88 24.83 67.88 24.83 73.07 24.83 73.07 24.83 73.07 24.83 73.07 73.63 73.07 73.63 73.07 73.63 24.93 73.63 24.93 73.63 24.93 73.63 24.93 24.83 24.93 24.83ZM 26.67 36.69C 26.67 36.69 26.67 72.07 26.67 72.07 26.67 72.07 71.64 72.07 71.64 72.07 71.64 72.07 71.64 36.69 71.64 36.69 71.64 36.69 71.64 26.31 71.64 26.31 71.64 26.31 67.88 26.31 67.88 26.31 67.88 26.31 66.12 26.31 66.12 26.31 66.12 26.31 59.77 26.31 59.77 26.31 59.77 26.31 58 26.31 58 26.31 58 26.31 50.92 26.31 50.92 26.31 50.92 26.31 49.15 26.31 49.15 26.31 49.15 26.31 41.8 26.31 41.8 26.31 41.8 26.31 40.04 26.31 40.04 26.31 40.04 26.31 32.98 26.31 32.98 26.31 32.98 26.31 31.21 26.31 31.21 26.31 31.21 26.31 26.67 26.31 26.67 26.31 26.67 26.31 26.67 36.69 26.67 36.69ZM 32.17 65.06C 32.17 65.06 64.83 32.4 64.83 32.4 64.83 32.4 49.43 32.4 49.43 32.4 49.43 32.4 49.43 30.99 49.43 30.99 49.43 30.99 67.25 30.99 67.25 30.99 67.25 30.99 67.25 48.8 67.25 48.8 67.25 48.8 65.83 48.8 65.83 48.8 65.83 48.8 65.83 33.4 65.83 33.4 65.83 33.4 33.17 66.06 33.17 66.06 33.17 66.06 48.57 66.06 48.57 66.06 48.57 66.06 48.57 67.48 48.57 67.48 48.57 67.48 30.75 67.48 30.75 67.48 30.75 67.48 30.75 49.66 30.75 49.66 30.75 49.66 32.17 49.66 32.17 49.66 32.17 49.66 32.17 65.06 32.17 65.06Z" fill="rgb(0,0,0)"/></svg>